<?xml version="1.0" encoding="utf-8"?>
<!-- Generator: Adobe Illustrator 26.0.3, SVG Export Plug-In . SVG Version: 6.00 Build 0)  -->
<svg version="1.0" id="Layer_1" xmlns="http://www.w3.org/2000/svg" xmlns:xlink="http://www.w3.org/1999/xlink" x="0px" y="0px"
	 viewBox="0 0 274 211" style="enable-background:new 0 0 274 211;" xml:space="preserve">
<style type="text/css">
	.st0{fill:#F71963;}
</style>
<path class="st0" d="M178.7,97.8h-6.2v21.3c0,0.2-0.1,0.4-0.2,0.5c-0.1,0.1-0.3,0.2-0.5,0.2h-4.8c-0.2,0-0.4-0.1-0.5-0.2
	c-0.1-0.1-0.2-0.3-0.2-0.5V97.8h-6.3c-0.1,0-0.2,0-0.3,0c-0.1,0-0.2-0.1-0.2-0.2c-0.1-0.1-0.1-0.1-0.2-0.2c0-0.1-0.1-0.2-0.1-0.3
	v-3.8c0-0.1,0-0.2,0.1-0.3c0-0.1,0.1-0.2,0.2-0.2c0.1-0.1,0.2-0.1,0.2-0.2c0.1,0,0.2,0,0.3,0h18.8c0.4,0,0.7,0.3,0.8,0.7
	c0,0,0,0,0,0v3.8c0,0.2-0.1,0.4-0.2,0.5C179,97.8,178.8,97.8,178.7,97.8z"/>
<path class="st0" d="M198.7,119.7c-2.5,0.3-4.9,0.5-7.4,0.5c-4.8,0-8.9-1.2-8.9-7.9v-12.2c0-6.7,4.2-7.8,9-7.8
	c2.5,0,4.9,0.1,7.4,0.5c0.5,0.1,0.7,0.3,0.7,0.7v3.4c0,0.2-0.1,0.4-0.2,0.5c-0.1,0.1-0.3,0.2-0.5,0.2H191c-1.7,0-2.4,0.6-2.4,2.5
	v3.3h9.8c0.2,0,0.4,0.1,0.5,0.2c0.1,0.1,0.2,0.3,0.2,0.5v3.5c0,0.2-0.1,0.4-0.2,0.5c-0.1,0.1-0.3,0.2-0.5,0.2h-9.8v3.9
	c0,1.9,0.6,2.5,2.4,2.5h7.8c0.2,0,0.4,0.1,0.5,0.2c0.1,0.1,0.2,0.3,0.2,0.5v3.4C199.5,119.4,199.2,119.7,198.7,119.7z"/>
<path class="st0" d="M226.5,119.9h-5.9c-0.4,0-0.8-0.2-1-0.6l-5.1-8l-4.6,7.8c-0.2,0.4-0.5,0.7-0.9,0.7h-5.4c-0.3,0-0.5-0.1-0.5-0.4
	c0,0,0-0.1,0-0.1c0-0.1,0-0.2,0.1-0.3l8-13.2l-8.1-12.6c0-0.1-0.1-0.1-0.1-0.2c0-0.1,0.1-0.3,0.2-0.3c0.1-0.1,0.2-0.1,0.4-0.1h5.9
	c0.4,0,0.7,0.4,0.9,0.7l4.7,7.4l4.6-7.4c0.2-0.4,0.5-0.6,0.9-0.7h5.4c0.1,0,0.3,0,0.4,0.1c0.1,0.1,0.2,0.2,0.2,0.3
	c0,0.1,0,0.2-0.1,0.2l-8,12.7l8.4,13.2c0.1,0.1,0.1,0.2,0.1,0.4C227,119.7,226.8,119.9,226.5,119.9z"/>
<path class="st0" d="M150.2,92.7c-0.1,0-0.3,0-0.4,0.1c-0.1,0.1-0.2,0.2-0.2,0.3l-5.3,19.7c-0.1,0.4-0.2,0.6-0.5,0.6
	s-0.4-0.2-0.5-0.6L138,93.2c0-0.1-0.1-0.2-0.2-0.3c-0.1-0.1-0.2-0.1-0.4-0.1h-5.3c-0.1,0-0.2,0-0.2,0c-0.1,0-0.1,0.1-0.2,0.2
	c-0.1,0.1-0.1,0.1-0.1,0.2c0,0.1,0,0.2,0,0.2c0,0,6.5,22.6,6.6,22.8c0.7,2.5,3.1,4.2,5.7,4c2.6,0.1,4.9-1.5,5.7-4
	c0.1-0.3,6.5-22.8,6.5-22.8c0-0.1,0-0.2,0-0.2c0-0.1-0.1-0.2-0.1-0.2c-0.1-0.1-0.1-0.1-0.2-0.2c-0.1,0-0.2,0-0.2,0H150.2z"/>
<path class="st0" d="M117.8,72.9H60.7c-3.2,0-5.9,2.6-5.9,5.9c0,0.9,0.2,1.9,0.7,2.7l5.7,10.8H50.8c-0.7,0-1.3,0.2-1.9,0.5
	C47.8,93.4,47,94.6,47,96c0,0.7,0.1,1.3,0.4,1.9l18.4,34.6c1,1.9,3.3,2.6,5.2,1.6c0.7-0.4,1.2-0.9,1.6-1.6l5-9.4l6.3,11.8
	c1.5,2.9,5.1,4,8,2.4c1-0.5,1.9-1.4,2.4-2.4l28.7-53.6c1.5-2.8,0.4-6.2-2.4-7.7C119.7,73.2,118.8,72.9,117.8,72.9z M92.2,95.9
	L79.8,119c-0.2,0.4-0.5,0.8-0.9,1c-0.8,0.5-1.8,0.5-2.6,0c-0.4-0.2-0.7-0.6-0.9-1L63.1,96c-0.4-0.8-0.4-1.7,0.1-2.5
	c0.2-0.4,0.5-0.7,0.9-0.9c0.4-0.2,0.8-0.3,1.2-0.3H90c0.4,0,0.8,0.1,1.2,0.3c0.4,0.2,0.7,0.5,0.9,0.9c0.2,0.4,0.3,0.8,0.3,1.2
	C92.5,95.1,92.4,95.5,92.2,95.9z"/>
</svg>
